<?xml version="1.0" encoding="UTF-8"?>
<svg version="1.1" xmlns="http://www.w3.org/2000/svg" width="69" height="53">
<path d="M0 0 C2.82410834 5.64821668 1.71849377 15.70957313 0.38671875 21.80859375 C-2.3790381 28.6437902 -7.85544552 35.9270672 -14.6875 39 C-22.52378375 41.36567057 -32.15740367 42.8700761 -40 39.8125 C-46.10100462 36.12647637 -50.72887159 30.81338523 -53 24 C-53.203125 21.84375 -53.203125 21.84375 -53.25 19.5 C-53.27578125 18.7265625 -53.3015625 17.953125 -53.328125 17.15625 C-53 15 -53 15 -51.74609375 13.19140625 C-50 12 -50 12 -48.01953125 11.93359375 C-41.88527499 13.33415845 -37.73796572 15.89462371 -33 20 C-32.89816406 19.2678125 -32.79632813 18.535625 -32.69140625 17.78125 C-31.19301888 11.75383866 -26.35737259 6.6273823 -21.375 3.0625 C-15.62118457 -0.19799541 -6.36054034 -2.52638284 0 0 Z " fill="#20AF90" transform="translate(60,11)"/>
<path d="M0 0 C-0.55490152 3.61858314 -1.69331699 4.86709773 -4.5625 7.0625 C-11.47057355 12.82751102 -16.00710417 20.01420833 -20 28 C-13.07 27.01 -13.07 27.01 -6 26 C-7.98 26.99 -7.98 26.99 -10 28 C-10 28.66 -10 29.32 -10 30 C-31.41400699 30.44253975 -31.41400699 30.44253975 -36 28 C-41.95040676 22.24362824 -44.1833806 16.19530537 -44.36328125 8.0859375 C-44 6 -44 6 -42.7421875 4.19921875 C-41 3 -41 3 -39.01953125 2.93359375 C-32.88527499 4.33415845 -28.73796572 6.89462371 -24 11 C-24 10.01 -24 9.02 -24 8 C-23.01 8 -22.02 8 -21 8 C-20.67 7.34 -20.34 6.68 -20 6 C-20.66 11.28 -21.32 16.56 -22 22 C-21.34 22 -20.68 22 -20 22 C-19.82791016 21.12214844 -19.82791016 21.12214844 -19.65234375 20.2265625 C-17.61644508 13.27768681 -7.19895171 0 0 0 Z " fill="#23AD8D" transform="translate(51,20)"/>
<path d="M0 0 C1.98 0 3.96 0 6 0 C6.08150744 2.06183633 6.1394194 4.12461349 6.1875 6.1875 C6.23970703 7.91033203 6.23970703 7.91033203 6.29296875 9.66796875 C5.97230058 13.31503468 4.8774808 14.93944911 3 18 C3.30318103 19.34051115 3.63425511 20.67519074 4 22 C0.88926972 27.62836412 -4.0160727 30.58634838 -9.9375 32.6875 C-12.96338498 33.14596742 -15.94632229 33.05872457 -19 33 C-16.25582468 23.51378988 -9.4338584 15.38909992 -2 9 C-1.34 8.67 -0.68 8.34 0 8 C0.33 7.01 0.66 6.02 1 5 C0.01 5 -0.98 5 -2 5 C-1.34 3.35 -0.68 1.7 0 0 Z " fill="#1FB292" transform="translate(50,15)"/>
<path d="M0 0 C-0.55490152 3.61858314 -1.69331699 4.86709773 -4.5625 7.0625 C-11.47057355 12.82751102 -16.00710417 20.01420833 -20 28 C-13.07 27.01 -13.07 27.01 -6 26 C-7.98 26.99 -7.98 26.99 -10 28 C-10 28.66 -10 29.32 -10 30 C-12.68777802 30.0544207 -15.37443212 30.09387266 -18.0625 30.125 C-18.81466797 30.14175781 -19.56683594 30.15851562 -20.34179688 30.17578125 C-25.29327709 30.21865121 -29.30414451 29.58399375 -34 28 C-34 27.67 -34 27.34 -34 27 C-31.69 27 -29.38 27 -27 27 C-29.33124629 23.00216062 -31.52150646 19.47849354 -34.8125 16.1875 C-35.534375 15.465625 -36.25625 14.74375 -37 14 C-37 13.01 -37 12.02 -37 11 C-31.36310966 12.32632714 -29.06814317 16.46631765 -26 21 C-26 18.69 -26 16.38 -26 14 C-25.34 14 -24.68 14 -24 14 C-23.67 12.02 -23.34 10.04 -23 8 C-22.34 8 -21.68 8 -21 8 C-20.67 7.34 -20.34 6.68 -20 6 C-20.66 11.28 -21.32 16.56 -22 22 C-21.34 22 -20.68 22 -20 22 C-19.82791016 21.12214844 -19.82791016 21.12214844 -19.65234375 20.2265625 C-17.61644508 13.27768681 -7.19895171 0 0 0 Z " fill="#0B7A5E" transform="translate(51,20)"/>
<path d="M0 0 C1.63305288 3.26610577 1.14276152 6.85263227 1.125 10.4375 C1.13080078 11.60249023 1.13080078 11.60249023 1.13671875 12.79101562 C1.13099989 16.11081172 1.05668831 18.82993506 0 22 C-0.99 22 -1.98 22 -3 22 C-3 22.66 -3 23.32 -3 24 C-3.66 24 -4.32 24 -5 24 C-4.84660156 23.34644531 -4.69320312 22.69289063 -4.53515625 22.01953125 C-3.86620406 18.24507841 -3.64592703 14.51094004 -3.4375 10.6875 C-3.39431641 9.94693359 -3.35113281 9.20636719 -3.30664062 8.44335938 C-3.20129568 6.62908536 -3.10021684 4.8145645 -3 3 C-12.51387268 4.0727809 -18.82306951 5.09406277 -25.125 12.6875 C-25.58132812 13.28949219 -26.03765625 13.89148438 -26.5078125 14.51171875 C-28.27640997 16.27568638 -29.56658354 16.60835572 -32 17 C-29.91384679 10.11569439 -25.47607818 5.51214316 -19.25 2.125 C-13.30305308 -0.60592426 -6.3663537 -2.27169449 0 0 Z " fill="#127B5F" transform="translate(60,11)"/>
<path d="M0 0 C0.66 0 1.32 0 2 0 C1.2622263 6.63996333 -3.28861978 10.61643426 -8 15 C-15.30383016 19.72006415 -24.62156782 19.61681709 -33 19 C-35.64905362 18.25912647 -37.58432419 17.34828417 -40 16 C-37.27362371 14.63681186 -35.99659818 15.38787781 -33 16 C-30.06665762 16.26445232 -27.12864145 16.41211473 -24.1875 16.5625 C-23.39923828 16.60568359 -22.61097656 16.64886719 -21.79882812 16.69335938 C-19.86605785 16.79878321 -17.93304974 16.89983094 -16 17 C-16 16.34 -16 15.68 -16 15 C-15.360625 14.896875 -14.72125 14.79375 -14.0625 14.6875 C-13.381875 14.460625 -12.70125 14.23375 -12 14 C-11.67 13.01 -11.34 12.02 -11 11 C-10.030625 10.195625 -9.06125 9.39125 -8.0625 8.5625 C-5.38705307 6.32386073 -4.17591989 5.1749837 -3 2 C-2.01 2 -1.02 2 0 2 C0 1.34 0 0.68 0 0 Z " fill="#70AB9B" transform="translate(57,33)"/>
<path d="M0 0 C6.13425626 1.4005647 10.28156553 3.96102996 15.01953125 8.06640625 C15.34953125 7.07640625 15.67953125 6.08640625 16.01953125 5.06640625 C17.01953125 8.06640625 17.01953125 8.06640625 16.08203125 10.25390625 C15.55609375 11.15109375 15.55609375 11.15109375 15.01953125 12.06640625 C14.35953125 11.73640625 13.69953125 11.40640625 13.01953125 11.06640625 C12.68953125 11.72640625 12.35953125 12.38640625 12.01953125 13.06640625 C9.01953125 9.31640625 9.01953125 9.31640625 9.01953125 7.06640625 C6.54453125 6.07640625 6.54453125 6.07640625 4.01953125 5.06640625 C4.01953125 4.07640625 4.01953125 3.08640625 4.01953125 2.06640625 C2.03953125 2.39640625 0.05953125 2.72640625 -1.98046875 3.06640625 C-2.09185034 8.52410436 -1.89704856 13.68149984 -0.98046875 19.06640625 C-3.9820333 15.28182486 -5.13388536 12.39557581 -5.23046875 7.56640625 C-5.25625 6.79296875 -5.28203125 6.01953125 -5.30859375 5.22265625 C-4.98046875 3.06640625 -4.98046875 3.06640625 -3.7265625 1.2578125 C-1.98046875 0.06640625 -1.98046875 0.06640625 0 0 Z " fill="#489581" transform="translate(11.98046875,22.93359375)"/>
<path d="M0 0 C2.81707371 0.08285511 4.53443313 0.57675739 6.6328125 2.484375 C9.53621091 5.76647755 10.90736161 7.62944643 12 12 C7.545 12.495 7.545 12.495 3 13 C2.34 12.01 1.68 11.02 1 10 C2.98 10.495 2.98 10.495 5 11 C4.6390625 10.45730469 4.278125 9.91460937 3.90625 9.35546875 C3.4421875 8.64003906 2.978125 7.92460938 2.5 7.1875 C1.80390625 6.12595703 1.80390625 6.12595703 1.09375 5.04296875 C0 3 0 3 0 0 Z " fill="#20B08E" transform="translate(12,35)"/>
<path d="M0 0 C-1.134375 0.268125 -2.26875 0.53625 -3.4375 0.8125 C-4.613125 1.204375 -5.78875 1.59625 -7 2 C-7.33 2.99 -7.66 3.98 -8 5 C-9.70703125 6.68359375 -9.70703125 6.68359375 -11.8125 8.4375 C-14.11265868 10.37967334 -16.27115592 12.2782916 -18.375 14.4375 C-20 16 -20 16 -22 16 C-20.21006491 10.0932142 -16.67843987 5.72366478 -11.5234375 2.40625 C-4.12654125 -1.52130553 -4.12654125 -1.52130553 0 0 Z " fill="#26856D" transform="translate(50,12)"/>
<path d="M0 0 C1.4540625 0.0309375 1.4540625 0.0309375 2.9375 0.0625 C2.9375 0.7225 2.9375 1.3825 2.9375 2.0625 C1.2875 2.0625 -0.3625 2.0625 -2.0625 2.0625 C-1.15638377 8.76299105 -0.20836298 13.67287812 3.9375 19.0625 C3.9375 19.7225 3.9375 20.3825 3.9375 21.0625 C1.625 20.625 1.625 20.625 -1.0625 19.0625 C-4.09418611 13.54388388 -4.78158554 7.25769851 -4.0625 1.0625 C-3.0625 0.0625 -3.0625 0.0625 0 0 Z " fill="#1B7D64" transform="translate(13.0625,24.9375)"/>
<path d="M0 0 C1.04449911 3.13349732 0.93423645 3.98968256 0 7 C0.66 7 1.32 7 2 7 C1.39301257 11.12751449 -0.03810791 14.3321148 -2 18 C-2.66 18 -3.32 18 -4 18 C-4.53449652 10.75460274 -3.71607548 6.27087737 0 0 Z " fill="#20AA89" transform="translate(33,24)"/>
<path d="M0 0 C5.058139 1.19015035 6.90886788 4.22898087 9.66796875 8.3203125 C10.10753906 8.87460937 10.54710937 9.42890625 11 10 C11.66 10 12.32 10 13 10 C13 10.66 13 11.32 13 12 C12.01 12 11.02 12 10 12 C9.67 12.66 9.34 13.32 9 14 C8.443125 13.113125 7.88625 12.22625 7.3125 11.3125 C5.75357457 8.94338035 4.32908087 7.34432904 2.25 5.3125 C0 3 0 3 0 0 Z " fill="#077E63" transform="translate(14,31)"/>
<path d="M0 0 C1.9375 0.375 1.9375 0.375 4 1 C5.63405901 4.26811802 5.18453757 7.84999407 5.1875 11.4375 C5.19974609 12.21416016 5.21199219 12.99082031 5.22460938 13.79101562 C5.23474195 17.71232309 5.2225417 19.66618745 3 23 C2.04053405 18.38034912 2.03897756 14.31870875 2.4375 9.625 C2.59025391 7.75714844 2.59025391 7.75714844 2.74609375 5.8515625 C2.87177734 4.44003906 2.87177734 4.44003906 3 3 C2.01 2.67 1.02 2.34 0 2 C0 1.34 0 0.68 0 0 Z " fill="#79B0A1" transform="translate(56,10)"/>
<path d="M0 0 C0.33 0.99 0.66 1.98 1 3 C0.34 3.66 -0.32 4.32 -1 5 C-1.69748583 6.31747324 -2.36959957 7.64914193 -3 9 C-4.98 9 -6.96 9 -9 9 C-8.34 8.67 -7.68 8.34 -7 8 C-6.67 7.01 -6.34 6.02 -6 5 C-4.12382302 3.15500602 -2.07262391 1.6316401 0 0 Z " fill="#2F8A72" transform="translate(52,39)"/>
<path d="M0 0 C0.99 0 1.98 0 3 0 C3.33 1.32 3.66 2.64 4 4 C-0.455 4.495 -0.455 4.495 -5 5 C-5.66 4.01 -6.32 3.02 -7 2 C-6.030625 1.855625 -5.06125 1.71125 -4.0625 1.5625 C-1.13513227 1.32437659 -1.13513227 1.32437659 0 0 Z " fill="#3BA78D" transform="translate(20,43)"/>
<path d="M0 0 C-1.7015625 0.4021875 -1.7015625 0.4021875 -3.4375 0.8125 C-4.613125 1.204375 -5.78875 1.59625 -7 2 C-7.33 2.99 -7.66 3.98 -8 5 C-9.65 5.33 -11.3 5.66 -13 6 C-11.9280096 2.5458087 -10.90283569 1.94781917 -7.625 0.1875 C-3.0098832 -1.32434861 -3.0098832 -1.32434861 0 0 Z " fill="#368670" transform="translate(50,12)"/>
<path d="M0 0 C1.4540625 0.0309375 1.4540625 0.0309375 2.9375 0.0625 C2.9375 0.7225 2.9375 1.3825 2.9375 2.0625 C1.2875 2.0625 -0.3625 2.0625 -2.0625 2.0625 C-2.0625 4.3725 -2.0625 6.6825 -2.0625 9.0625 C-2.7225 8.7325 -3.3825 8.4025 -4.0625 8.0625 C-4.10491723 5.72955225 -4.10342937 3.39547433 -4.0625 1.0625 C-3.0625 0.0625 -3.0625 0.0625 0 0 Z " fill="#0B7F60" transform="translate(13.0625,24.9375)"/>
<path d="M0 0 C3.93846154 3.32307692 3.93846154 3.32307692 4.25 6.75 C4.1675 7.4925 4.085 8.235 4 9 C1.4375 6.75 1.4375 6.75 -1 4 C-0.8125 1.6875 -0.8125 1.6875 0 0 Z " fill="#24A786" transform="translate(22,33)"/>
</svg>
